<svg width="140" height="140" viewBox="0 0 140 140" fill="none" xmlns="http://www.w3.org/2000/svg">
<path d="M117.827 67.4687H117.784C116.584 67.4687 115.632 68.4425 115.632 69.6422C115.632 70.842 116.627 71.8157 117.827 71.8157C119.027 71.8157 120 70.842 120 69.6422C120 68.4425 119.031 67.4687 117.827 67.4687Z" fill="white"/>
<path d="M109.133 67.4687H109.089C107.889 67.4687 106.938 68.4425 106.938 69.6422C106.938 70.842 107.933 71.8157 109.133 71.8157C110.332 71.8157 111.306 70.842 111.306 69.6422C111.306 68.4425 110.337 67.4687 109.133 67.4687Z" fill="white"/>
<path d="M100.439 67.4687H100.396C99.1961 67.4687 98.2441 68.4425 98.2441 69.6422C98.2441 70.842 99.2395 71.8157 100.439 71.8157C101.639 71.8157 102.613 70.842 102.613 69.6422C102.613 68.4425 101.643 67.4687 100.439 67.4687Z" fill="white"/>
<path d="M91.7449 67.4687H91.7015C90.5018 67.4687 89.5498 68.4425 89.5498 69.6422C89.5498 70.842 90.5452 71.8157 91.7449 71.8157C92.9446 71.8157 93.9184 70.842 93.9184 69.6422C93.9184 68.4425 92.9489 67.4687 91.7449 67.4687Z" fill="white"/>
<path d="M83.0516 67.4687H83.0081C81.8084 67.4687 80.8564 68.4425 80.8564 69.6422C80.8564 70.842 81.8518 71.8157 83.0516 71.8157C84.2513 71.8157 85.2251 70.842 85.2251 69.6422C85.2251 68.4425 84.2556 67.4687 83.0516 67.4687Z" fill="white"/>
<path d="M74.3572 67.4687H74.3138C73.1141 67.4687 72.1621 68.4425 72.1621 69.6422C72.1621 70.842 73.1575 71.8157 74.3572 71.8157C75.557 71.8157 76.5307 70.842 76.5307 69.6422C76.5307 68.4425 75.5614 67.4687 74.3572 67.4687Z" fill="white"/>
<path d="M65.6639 67.4687H65.6205C64.4207 67.4687 63.4688 68.4425 63.4688 69.6422C63.4688 70.842 64.4641 71.8157 65.6639 71.8157C66.8636 71.8157 67.8374 70.842 67.8374 69.6422C67.8374 68.4425 66.8679 67.4687 65.6639 67.4687Z" fill="white"/>
<path d="M109.133 58.7749H109.089C107.889 58.7749 106.938 59.7487 106.938 60.9484C106.938 62.1481 107.933 63.1219 109.133 63.1219C110.332 63.1219 111.306 62.1481 111.306 60.9484C111.306 59.7487 110.337 58.7749 109.133 58.7749Z" fill="white"/>
<path d="M100.439 58.7749H100.396C99.1961 58.7749 98.2441 59.7487 98.2441 60.9484C98.2441 62.1481 99.2395 63.1219 100.439 63.1219C101.639 63.1219 102.613 62.1481 102.613 60.9484C102.613 59.7487 101.643 58.7749 100.439 58.7749Z" fill="white"/>
<path d="M91.7449 58.7749H91.7015C90.5018 58.7749 89.5498 59.7487 89.5498 60.9484C89.5498 62.1481 90.5452 63.1219 91.7449 63.1219C92.9446 63.1219 93.9184 62.1481 93.9184 60.9484C93.9184 59.7487 92.9489 58.7749 91.7449 58.7749Z" fill="white"/>
<path d="M83.0516 58.7749H83.0081C81.8084 58.7749 80.8564 59.7487 80.8564 60.9484C80.8564 62.1481 81.8518 63.1219 83.0516 63.1219C84.2513 63.1219 85.2251 62.1481 85.2251 60.9484C85.2251 59.7487 84.2556 58.7749 83.0516 58.7749Z" fill="white"/>
<path d="M74.3572 58.7749H74.3138C73.1141 58.7749 72.1621 59.7487 72.1621 60.9484C72.1621 62.1481 73.1575 63.1219 74.3572 63.1219C75.557 63.1219 76.5307 62.1481 76.5307 60.9484C76.5307 59.7487 75.5614 58.7749 74.3572 58.7749Z" fill="white"/>
<path d="M100.439 50.0813H100.396C99.1961 50.0813 98.2441 51.055 98.2441 52.2548C98.2441 53.4545 99.2395 54.4283 100.439 54.4283C101.639 54.4283 102.613 53.4545 102.613 52.2548C102.613 51.055 101.643 50.0813 100.439 50.0813Z" fill="white"/>
<path d="M91.7449 50.0813H91.7015C90.5018 50.0813 89.5498 51.055 89.5498 52.2548C89.5498 53.4545 90.5452 54.4283 91.7449 54.4283C92.9446 54.4283 93.9184 53.4545 93.9184 52.2548C93.9184 51.055 92.9489 50.0813 91.7449 50.0813Z" fill="white"/>
<path d="M83.0516 50.0813H83.0081C81.8084 50.0813 80.8564 51.055 80.8564 52.2548C80.8564 53.4545 81.8518 54.4283 83.0516 54.4283C84.2513 54.4283 85.2251 53.4545 85.2251 52.2548C85.2251 51.055 84.2556 50.0813 83.0516 50.0813Z" fill="white"/>
<path d="M74.3572 50.0813H74.3138C73.1141 50.0813 72.1621 51.055 72.1621 52.2548C72.1621 53.4545 73.1575 54.4283 74.3572 54.4283C75.557 54.4283 76.5307 53.4545 76.5307 52.2548C76.5307 51.055 75.5614 50.0813 74.3572 50.0813Z" fill="white"/>
<path d="M91.7449 41.3875H91.7015C90.5018 41.3875 89.5498 42.3612 89.5498 43.561C89.5498 44.7607 90.5452 45.7345 91.7449 45.7345C92.9446 45.7345 93.9184 44.7607 93.9184 43.561C93.9184 42.3612 92.9489 41.3875 91.7449 41.3875Z" fill="white"/>
<path d="M83.0516 41.3875H83.0081C81.8084 41.3875 80.8564 42.3612 80.8564 43.561C80.8564 44.7607 81.8518 45.7345 83.0516 45.7345C84.2513 45.7345 85.2251 44.7607 85.2251 43.561C85.2251 42.3612 84.2556 41.3875 83.0516 41.3875Z" fill="white"/>
<path d="M74.3572 41.3875H74.3138C73.1141 41.3875 72.1621 42.3612 72.1621 43.561C72.1621 44.7607 73.1575 45.7345 74.3572 45.7345C75.557 45.7345 76.5307 44.7607 76.5307 43.561C76.5307 42.3612 75.5614 41.3875 74.3572 41.3875Z" fill="white"/>
<path d="M83.0516 32.6936H83.0081C81.8084 32.6936 80.8564 33.6674 80.8564 34.8671C80.8564 36.0669 81.8518 37.0406 83.0516 37.0406C84.2513 37.0406 85.2251 36.0669 85.2251 34.8671C85.2251 33.6674 84.2556 32.6936 83.0516 32.6936Z" fill="white"/>
<path d="M74.3572 32.6936H74.3138C73.1141 32.6936 72.1621 33.6674 72.1621 34.8671C72.1621 36.0669 73.1575 37.0406 74.3572 37.0406C75.557 37.0406 76.5307 36.0669 76.5307 34.8671C76.5307 33.6674 75.5614 32.6936 74.3572 32.6936Z" fill="white"/>
<path d="M74.3572 24H74.3138C73.1141 24 72.1621 24.9738 72.1621 26.1735C72.1621 27.3732 73.1575 28.347 74.3572 28.347C75.557 28.347 76.5307 27.3732 76.5307 26.1735C76.5307 24.9738 75.5614 24 74.3572 24Z" fill="white"/>
<path d="M109.133 76.1625H109.089C107.889 76.1625 106.938 77.1363 106.938 78.336C106.938 79.5358 107.933 80.5096 109.133 80.5096C110.332 80.5096 111.306 79.5358 111.306 78.336C111.306 77.1363 110.337 76.1625 109.133 76.1625Z" fill="white"/>
<path d="M100.439 76.1625H100.396C99.1961 76.1625 98.2441 77.1363 98.2441 78.336C98.2441 79.5358 99.2395 80.5096 100.439 80.5096C101.639 80.5096 102.613 79.5358 102.613 78.336C102.613 77.1363 101.643 76.1625 100.439 76.1625Z" fill="white"/>
<path d="M91.7449 76.1625H91.7015C90.5018 76.1625 89.5498 77.1363 89.5498 78.336C89.5498 79.5358 90.5452 80.5096 91.7449 80.5096C92.9446 80.5096 93.9184 79.5358 93.9184 78.336C93.9184 77.1363 92.9489 76.1625 91.7449 76.1625Z" fill="white"/>
<path d="M83.0516 76.1625H83.0081C81.8084 76.1625 80.8564 77.1363 80.8564 78.336C80.8564 79.5358 81.8518 80.5096 83.0516 80.5096C84.2513 80.5096 85.2251 79.5358 85.2251 78.336C85.2251 77.1363 84.2556 76.1625 83.0516 76.1625Z" fill="white"/>
<path d="M74.3572 76.1625H74.3138C73.1141 76.1625 72.1621 77.1363 72.1621 78.336C72.1621 79.5358 73.1575 80.5096 74.3572 80.5096C75.557 80.5096 76.5307 79.5358 76.5307 78.336C76.5307 77.1363 75.5614 76.1625 74.3572 76.1625Z" fill="white"/>
<path d="M100.439 84.8562H100.396C99.1961 84.8562 98.2441 85.8299 98.2441 87.0297C98.2441 88.2294 99.2395 89.2032 100.439 89.2032C101.639 89.2032 102.613 88.2294 102.613 87.0297C102.613 85.8299 101.643 84.8562 100.439 84.8562Z" fill="white"/>
<path d="M91.7449 84.8562H91.7015C90.5018 84.8562 89.5498 85.8299 89.5498 87.0297C89.5498 88.2294 90.5452 89.2032 91.7449 89.2032C92.9446 89.2032 93.9184 88.2294 93.9184 87.0297C93.9182 85.8299 92.9489 84.8562 91.7449 84.8562Z" fill="white"/>
<path d="M83.0516 84.8562H83.0081C81.8084 84.8562 80.8564 85.8299 80.8564 87.0297C80.8564 88.2294 81.8518 89.2032 83.0516 89.2032C84.2513 89.2032 85.2251 88.2294 85.2251 87.0297C85.2251 85.8299 84.2556 84.8562 83.0516 84.8562Z" fill="white"/>
<path d="M74.3572 84.8562H74.3138C73.1141 84.8562 72.1621 85.8299 72.1621 87.0297C72.1621 88.2294 73.1575 89.2032 74.3572 89.2032C75.557 89.2032 76.5307 88.2294 76.5307 87.0297C76.5307 85.8299 75.5614 84.8562 74.3572 84.8562Z" fill="white"/>
<path d="M91.7449 93.55H91.7015C90.5018 93.55 89.5498 94.5238 89.5498 95.7235C89.5498 96.9232 90.5452 97.897 91.7449 97.897C92.9446 97.897 93.9184 96.9232 93.9184 95.7235C93.9182 94.5238 92.9489 93.55 91.7449 93.55Z" fill="white"/>
<path d="M83.0516 93.55H83.0081C81.8084 93.55 80.8564 94.5238 80.8564 95.7235C80.8564 96.9232 81.8518 97.897 83.0516 97.897C84.2513 97.897 85.2251 96.9232 85.2251 95.7235C85.2251 94.5238 84.2556 93.55 83.0516 93.55Z" fill="white"/>
<path d="M74.3572 93.55H74.3138C73.1141 93.55 72.1621 94.5238 72.1621 95.7235C72.1621 96.9232 73.1575 97.897 74.3572 97.897C75.557 97.897 76.5307 96.9232 76.5307 95.7235C76.5307 94.5238 75.5614 93.55 74.3572 93.55Z" fill="white"/>
<path d="M83.0516 102.244H83.0081C81.8084 102.244 80.8564 103.218 80.8564 104.417C80.8564 105.617 81.8518 106.591 83.0516 106.591C84.2513 106.591 85.2251 105.617 85.2251 104.417C85.2251 103.218 84.2556 102.244 83.0516 102.244Z" fill="white"/>
<path d="M74.3572 102.244H74.3138C73.1141 102.244 72.1621 103.218 72.1621 104.417C72.1621 105.617 73.1575 106.591 74.3572 106.591C75.557 106.591 76.5307 105.617 76.5307 104.417C76.5307 103.218 75.5614 102.244 74.3572 102.244Z" fill="white"/>
<path d="M74.3572 110.937H74.3138C73.1141 110.937 72.1621 111.911 72.1621 113.111C72.1621 114.311 73.1575 115.284 74.3572 115.284C75.557 115.284 76.5307 114.311 76.5307 113.111C76.5307 111.911 75.5614 110.937 74.3572 110.937Z" fill="white"/>
<path d="M56.9695 67.4687H56.9261C55.7264 67.4687 54.7744 68.4425 54.7744 69.6422C54.7744 70.842 55.7698 71.8157 56.9695 71.8157C58.1693 71.8157 59.143 70.842 59.143 69.6422C59.143 68.4425 58.1735 67.4687 56.9695 67.4687Z" fill="white"/>
<path d="M48.2762 67.4687H48.2328C47.033 67.4687 46.0811 68.4425 46.0811 69.6422C46.0811 70.842 47.0764 71.8157 48.2762 71.8157C49.4759 71.8157 50.4497 70.842 50.4497 69.6422C50.4497 68.4425 49.4804 67.4687 48.2762 67.4687Z" fill="white"/>
<path d="M39.5828 67.4687H39.5394C38.3397 67.4687 37.3877 68.4425 37.3877 69.6422C37.3877 70.842 38.3831 71.8157 39.5828 71.8157C40.7825 71.8157 41.7563 70.842 41.7563 69.6422C41.7563 68.4425 40.7868 67.4687 39.5828 67.4687Z" fill="white"/>
<path d="M30.8885 67.4687H30.8451C29.6453 67.4687 28.6934 68.4425 28.6934 69.6422C28.6934 70.842 29.6887 71.8157 30.8885 71.8157C32.0882 71.8157 33.062 70.842 33.062 69.6422C33.062 68.4425 32.0925 67.4687 30.8885 67.4687Z" fill="white"/>
<path d="M22.1951 67.4687H22.1517C20.952 67.4687 20 68.4425 20 69.6422C20 70.842 20.9954 71.8157 22.1951 71.8157C23.3948 71.8157 24.3686 70.842 24.3686 69.6422C24.3686 68.4425 23.3993 67.4687 22.1951 67.4687Z" fill="white"/>
<path d="M65.6639 76.1625H65.6205C64.4207 76.1625 63.4688 77.1363 63.4688 78.336C63.4688 79.5358 64.4641 80.5096 65.6639 80.5096C66.8636 80.5096 67.8374 79.5358 67.8374 78.336C67.8374 77.1363 66.8679 76.1625 65.6639 76.1625Z" fill="white"/>
<path d="M56.9695 76.1625H56.9261C55.7264 76.1625 54.7744 77.1363 54.7744 78.336C54.7744 79.5358 55.7698 80.5096 56.9695 80.5096C58.1693 80.5096 59.143 79.5358 59.143 78.336C59.143 77.1363 58.1735 76.1625 56.9695 76.1625Z" fill="white"/>
<path d="M48.2762 76.1625H48.2328C47.033 76.1625 46.0811 77.1363 46.0811 78.336C46.0811 79.5358 47.0764 80.5096 48.2762 80.5096C49.4759 80.5096 50.4497 79.5358 50.4497 78.336C50.4497 77.1363 49.4804 76.1625 48.2762 76.1625Z" fill="white"/>
<path d="M39.5828 76.1625H39.5394C38.3397 76.1625 37.3877 77.1363 37.3877 78.336C37.3877 79.5358 38.3831 80.5096 39.5828 80.5096C40.7825 80.5096 41.7563 79.5358 41.7563 78.336C41.7563 77.1363 40.7868 76.1625 39.5828 76.1625Z" fill="white"/>
<path d="M30.8885 76.1625H30.8451C29.6453 76.1625 28.6934 77.1363 28.6934 78.336C28.6934 79.5358 29.6887 80.5096 30.8885 80.5096C32.0882 80.5096 33.062 79.5358 33.062 78.336C33.062 77.1363 32.0925 76.1625 30.8885 76.1625Z" fill="white"/>
<path d="M22.1951 76.1625H22.1517C20.952 76.1625 20 77.1363 20 78.336C20 79.5358 20.9954 80.5096 22.1951 80.5096C23.3948 80.5096 24.3686 79.5358 24.3686 78.336C24.3686 77.1363 23.3993 76.1625 22.1951 76.1625Z" fill="white"/>
<path d="M65.6639 58.7749H65.6205C64.4207 58.7749 63.4688 59.7487 63.4688 60.9484C63.4688 62.1481 64.4641 63.1219 65.6639 63.1219C66.8636 63.1219 67.8374 62.1481 67.8374 60.9484C67.8374 59.7487 66.8679 58.7749 65.6639 58.7749Z" fill="white"/>
<path d="M56.9695 58.7749H56.9261C55.7264 58.7749 54.7744 59.7487 54.7744 60.9484C54.7744 62.1481 55.7698 63.1219 56.9695 63.1219C58.1693 63.1219 59.143 62.1481 59.143 60.9484C59.143 59.7487 58.1735 58.7749 56.9695 58.7749Z" fill="white"/>
<path d="M48.2762 58.7749H48.2328C47.033 58.7749 46.0811 59.7487 46.0811 60.9484C46.0811 62.1481 47.0764 63.1219 48.2762 63.1219C49.4759 63.1219 50.4497 62.1481 50.4497 60.9484C50.4497 59.7487 49.4804 58.7749 48.2762 58.7749Z" fill="white"/>
<path d="M39.5828 58.7749H39.5394C38.3397 58.7749 37.3877 59.7487 37.3877 60.9484C37.3877 62.1481 38.3831 63.1219 39.5828 63.1219C40.7825 63.1219 41.7563 62.1481 41.7563 60.9484C41.7563 59.7487 40.7868 58.7749 39.5828 58.7749Z" fill="white"/>
<path d="M30.8885 58.7749H30.8451C29.6453 58.7749 28.6934 59.7487 28.6934 60.9484C28.6934 62.1481 29.6887 63.1219 30.8885 63.1219C32.0882 63.1219 33.062 62.1481 33.062 60.9484C33.062 59.7487 32.0925 58.7749 30.8885 58.7749Z" fill="white"/>
<path d="M22.1951 58.7749H22.1517C20.952 58.7749 20 59.7487 20 60.9484C20 62.1481 20.9954 63.1219 22.1951 63.1219C23.3948 63.1219 24.3686 62.1481 24.3686 60.9484C24.3686 59.7487 23.3993 58.7749 22.1951 58.7749Z" fill="white"/>
</svg>
